<svg xmlns="http://www.w3.org/2000/svg" viewBox="0 0 600 400" width="600">
  <rect width="600" height="400" rx="14" fill="#0D1117" stroke="#21262D" stroke-width="1"/>
  <text x="25" y="30" font-family="'Segoe UI', Arial, sans-serif" font-size="14" font-weight="bold" fill="#E6EDF3">📦 Projects</text>
  <line x1="25" y1="42" x2="575" y2="42" stroke="#21262D" stroke-width="1"/>
  <text x="575" y="30" font-family="'Courier New', monospace" font-size="10" fill="#484F58" text-anchor="end">🔒 Private repos may not be accessible</text>

  <!-- Row 1: Dashboard -->
  <rect x="25" y="55" width="265" height="60" rx="8" fill="#161B22" stroke="#21262D" stroke-width="1"/>
  <text x="40" y="80" font-family="'Segoe UI', Arial, sans-serif" font-size="12" font-weight="bold" fill="#E6EDF3">📊 tankecho-dashboard</text>
  <text x="40" y="96" font-family="'Courier New', monospace" font-size="10" fill="#8B949E">Service management dashboard</text>
  <rect x="40" y="103" width="55" height="16" rx="8" fill="#0D4429"/>
  <text x="67" y="114" font-family="'Courier New', monospace" font-size="9" fill="#3FB950" text-anchor="middle">Node.js</text>
  <rect x="101" y="103" width="56" height="16" rx="8" fill="#31271a"/>
  <text x="129" y="114" font-family="'Courier New', monospace" font-size="9" fill="#F0883E" text-anchor="middle">🔒 Private</text>

  <!-- Row 1: Taskboard -->
  <rect x="310" y="55" width="265" height="60" rx="8" fill="#161B22" stroke="#21262D" stroke-width="1"/>
  <text x="325" y="80" font-family="'Segoe UI', Arial, sans-serif" font-size="12" font-weight="bold" fill="#E6EDF3">📋 tankecho-taskboard</text>
  <text x="325" y="96" font-family="'Courier New', monospace" font-size="10" fill="#8B949E">Task management system</text>
  <rect x="325" y="103" width="42" height="16" rx="8" fill="#0D4429"/>
  <text x="346" y="114" font-family="'Courier New', monospace" font-size="9" fill="#3FB950" text-anchor="middle">Python</text>
  <rect x="373" y="103" width="46" height="16" rx="8" fill="#0D4429"/>
  <text x="396" y="114" font-family="'Courier New', monospace" font-size="9" fill="#3FB950" text-anchor="middle">FastAPI</text>
  <rect x="425" y="103" width="56" height="16" rx="8" fill="#31271a"/>
  <text x="453" y="114" font-family="'Courier New', monospace" font-size="9" fill="#F0883E" text-anchor="middle">🔒 Private</text>

  <!-- Row 2: Memory -->
  <rect x="25" y="125" width="265" height="60" rx="8" fill="#161B22" stroke="#21262D" stroke-width="1"/>
  <text x="40" y="150" font-family="'Segoe UI', Arial, sans-serif" font-size="12" font-weight="bold" fill="#E6EDF3">🧠 tankecho-memory</text>
  <text x="40" y="166" font-family="'Courier New', monospace" font-size="10" fill="#8B949E">Long-term memory with embeddings</text>
  <rect x="40" y="173" width="42" height="16" rx="8" fill="#0D4429"/>
  <text x="61" y="184" font-family="'Courier New', monospace" font-size="9" fill="#3FB950" text-anchor="middle">Python</text>
  <rect x="88" y="173" width="56" height="16" rx="8" fill="#31271a"/>
  <text x="116" y="184" font-family="'Courier New', monospace" font-size="9" fill="#F0883E" text-anchor="middle">🔒 Private</text>

  <!-- Row 2: State -->
  <rect x="310" y="125" width="265" height="60" rx="8" fill="#161B22" stroke="#21262D" stroke-width="1"/>
  <text x="325" y="150" font-family="'Segoe UI', Arial, sans-serif" font-size="12" font-weight="bold" fill="#E6EDF3">🎭 tankecho-state</text>
  <text x="325" y="166" font-family="'Courier New', monospace" font-size="10" fill="#8B949E">State &amp; mood management</text>
  <rect x="325" y="173" width="42" height="16" rx="8" fill="#0D4429"/>
  <text x="346" y="184" font-family="'Courier New', monospace" font-size="9" fill="#3FB950" text-anchor="middle">Python</text>
  <rect x="373" y="173" width="56" height="16" rx="8" fill="#31271a"/>
  <text x="401" y="184" font-family="'Courier New', monospace" font-size="9" fill="#F0883E" text-anchor="middle">🔒 Private</text>

  <!-- Row 3: Backup -->
  <rect x="25" y="195" width="265" height="60" rx="8" fill="#161B22" stroke="#21262D" stroke-width="1"/>
  <text x="40" y="220" font-family="'Segoe UI', Arial, sans-serif" font-size="12" font-weight="bold" fill="#E6EDF3">💾 tankecho-backup</text>
  <text x="40" y="236" font-family="'Courier New', monospace" font-size="10" fill="#8B949E">Auto backup system</text>
  <rect x="40" y="243" width="42" height="16" rx="8" fill="#0D4429"/>
  <text x="61" y="254" font-family="'Courier New', monospace" font-size="9" fill="#3FB950" text-anchor="middle">Python</text>
  <rect x="88" y="243" width="56" height="16" rx="8" fill="#31271a"/>
  <text x="116" y="254" font-family="'Courier New', monospace" font-size="9" fill="#F0883E" text-anchor="middle">🔒 Private</text>

  <!-- Row 3: Monument -->
  <rect x="310" y="195" width="265" height="60" rx="8" fill="#161B22" stroke="#21262D" stroke-width="1"/>
  <text x="325" y="220" font-family="'Segoe UI', Arial, sans-serif" font-size="12" font-weight="bold" fill="#E6EDF3">🏛️ tankecho-monument</text>
  <text x="325" y="236" font-family="'Courier New', monospace" font-size="10" fill="#8B949E">Timeline &amp; milestone system</text>
  <rect x="325" y="243" width="40" height="16" rx="8" fill="#0D4429"/>
  <text x="345" y="254" font-family="'Courier New', monospace" font-size="9" fill="#3FB950" text-anchor="middle">React</text>
  <rect x="371" y="243" width="28" height="16" rx="8" fill="#0D4429"/>
  <text x="385" y="254" font-family="'Courier New', monospace" font-size="9" fill="#3FB950" text-anchor="middle">API</text>
  <rect x="405" y="243" width="56" height="16" rx="8" fill="#31271a"/>
  <text x="433" y="254" font-family="'Courier New', monospace" font-size="9" fill="#F0883E" text-anchor="middle">🔒 Private</text>
</svg>
